# xmcd CD database file
#
# Track frame offsets:
#	150
#	21155
#	43630
#	54320
#	76195
#	96732
#	118492
#	138962
#	164020
#	182080
#	202895
#	214392
#	233342
#	257907
#	278852
#
# Disc length: 3951 seconds
#
# Revision: 3
# Processed by: cddbd v1.5.1PL2 Copyright (c) Steve Scherf et al.
# Submitted via: CD2WAV32(JP) R3.22
#
DISCID=da0f6d0f
DTITLE=Hirotaka Izumi - covers Love Songs
DYEAR=2005
DGENRE=Instrumental
TTITLE0=The First Time Ever I Saw Your Face
TTITLE1=Killing Me Softly With His Song
TTITLE2=Alfie
TTITLE3=The Look Of Love
TTITLE4=Melody Fair
TTITLE5=Here There And Everwhere
TTITLE6=Just The Way You Are
TTITLE7=I'm Not In Love
TTITLE8=The Summer Knows
TTITLE9=When A Man Loves A Woman
TTITLE10=Rainy Days And Mondays
TTITLE11=We're All Alone
TTITLE12=Everything Must Change
TTITLE13=You Make Me Feel Brand New
TTITLE14=Will You Still Love Me Tomorrow
EXTD=
EXTT0=
EXTT1=
EXTT2=
EXTT3=
EXTT4=
EXTT5=
EXTT6=
EXTT7=
EXTT8=
EXTT9=
EXTT10=
EXTT11=
EXTT12=
EXTT13=
EXTT14=
PLAYORDER=
